# xmcd
#
# Track frame offsets: 
#        150
#        16681
#        33024
#        50056
#        73553
#        103412
#        121254
#        142748
#        174523
#        196239
#
# Disc length: 2850 seconds
#
# Revision: 0
# Processed by: cddbd v1.5.2PL0 Copyright (c) Steve Scherf et al.
# Submitted via: ExactAudioCopy v1.0b4
#
DISCID=7e0b200a
DTITLE=Carey and Lurrie Bell - Straight Shot (LP)
DYEAR=1986
DGENRE=Blues
TTITLE0=Mystery Train
TTITLE1=One More Chance
TTITLE2=Detroit Michigan
TTITLE3=I Want You To Love Me
TTITLE4=So Tired Of Being Alone
TTITLE5=So Tired Of Being Alone
TTITLE6=Easy To Love You
TTITLE7=A Man And The Blues
TTITLE8=Piccadilly Square
TTITLE9=I' m Ready
EXTD=
EXTT0=
EXTT1=
EXTT2=
EXTT3=
EXTT4=
EXTT5=
EXTT6=
EXTT7=
EXTT8=
EXTT9=
PLAYORDER=
